# xmcd
#
# Track frame offsets:
#	150
#	16040
#	31595
#	47545
#	60375
#	73882
#	88097
#	102610
#	116872
#	130700
#
# Disc length: 2007 seconds
#
# Revision: 2
# Processed by: cddbd v1.5.1PL2 Copyright (c) Steve Scherf et al.
# Submitted via: EasyCDDAExtractor 6.5.9.5
#
DISCID=7e07d50a
DTITLE=Linda Davis - In A Different Light
DYEAR=1991
DGENRE=Country
TTITLE0=In A Different Light
TTITLE1=Some Kinda Woman
TTITLE2=Three Way Tie
TTITLE3=From Him To Here
TTITLE4=If Your Greener Grass Turns Blue
TTITLE5=There's A Problem At The Office
TTITLE6=Knowin' We'll Never Know
TTITLE7=White Collar Man
TTITLE8=The Crash Of 29
TTITLE9=If I Could Only Be Like You
EXTD=
EXTT0=
EXTT1=
EXTT2=
EXTT3=
EXTT4=
EXTT5=
EXTT6=
EXTT7=
EXTT8=
EXTT9=
PLAYORDER=
